<svg xmlns="http://www.w3.org/2000/svg" viewBox="0 0 451 206"><title>logo--450_architects</title><path d="M55.6,205.7c30.6,0,55.3-46,55.3-102.8S86.2,0.1,55.6.1,0.3,46.1.3,102.9,25,205.7,55.6,205.7" fill="#ff5a0a"/><path d="M450.3,115.2c0-5-3.9-7.6-7.5-8.2l-8.1-1.2c-2.5-.4-4-1.5-4-3.7a4.1,4.1,0,0,1,1.7-3.1,8.3,8.3,0,0,1,5.1-1.5,7.8,7.8,0,0,1,5.2,1.8,5.3,5.3,0,0,1,1.8,3.7h5a9.5,9.5,0,0,0-2.1-5.7c-2.1-2.7-5.8-4-9.9-4a13,13,0,0,0-9.1,3.4,8.1,8.1,0,0,0-2.4,5.8,7.8,7.8,0,0,0,1.8,5.2,9.3,9.3,0,0,0,5.5,2.8l7.6,1.1c3.2,0.5,4.4,2.2,4.4,4.2a3.9,3.9,0,0,1-1.5,3.1,9.2,9.2,0,0,1-5.9,1.7,9.6,9.6,0,0,1-5.8-1.5,5.9,5.9,0,0,1-2.6-4.6h-5a9.9,9.9,0,0,0,3,6.9c2.7,2.6,6.2,3.5,10.3,3.5s7.9-1.1,10.3-3.5a8.3,8.3,0,0,0,2.4-6m-33.7,7.2V118a17.2,17.2,0,0,1-7.6,2c-3.5,0-5.3-2.2-5.3-5.4V98.3h12.6V93.9H403.7V84.6l-5,1.6v7.8h-9.4v4.3h9.4v16.8c0,4.8,2.9,9.5,9.7,9.5a16.2,16.2,0,0,0,8.3-2.1M361.2,96.8c-3.3,3.2-4.6,7.4-4.6,12.1s1.4,8.9,4.6,12.1a13.6,13.6,0,0,0,9.4,3.7,12.5,12.5,0,0,0,8.8-3.2,11.7,11.7,0,0,0,3.8-7.7h-5a7.5,7.5,0,0,1-7.5,6.5,8.2,8.2,0,0,1-5.6-2.2c-2.5-2.3-3.3-5.9-3.3-9.2s0.7-6.9,3.3-9.2a8.2,8.2,0,0,1,5.6-2.1,7.7,7.7,0,0,1,5.1,1.9,7.6,7.6,0,0,1,2.4,4.6h5.1a11.5,11.5,0,0,0-3.7-7.6,12.7,12.7,0,0,0-8.8-3.3,13.6,13.6,0,0,0-9.4,3.7M344,106.4H327.1c0.1-3.6,2.8-8.9,8.6-8.9a7.7,7.7,0,0,1,5.8,2.4,9.6,9.6,0,0,1,2.5,6.5m5.3,4.2v-1.8c0-4.7-1.5-9.1-4.3-12a12.9,12.9,0,0,0-9.2-3.6,13.2,13.2,0,0,0-9.5,3.9,17.1,17.1,0,0,0-4.4,12,16.1,16.1,0,0,0,4.4,11.7,13.5,13.5,0,0,0,9.5,3.9c6.3,0,11.4-3.6,12.9-9.8h-4.9a7.5,7.5,0,0,1-2.5,3.6,7.7,7.7,0,0,1-5.5,1.8,8.2,8.2,0,0,1-5.8-2.3,10.4,10.4,0,0,1-3-7.5h22.4ZM315,122.5V118a17.2,17.2,0,0,1-7.6,2c-3.5,0-5.3-2.2-5.3-5.4V98.3h12.6V93.9H302.1V84.6l-5,1.6v7.8h-9.4v4.3H297v16.8c0,4.8,2.9,9.5,9.7,9.5a16.2,16.2,0,0,0,8.3-2.1m-28,1.5v-4.3H276.1V93.9H261.4v4.3H271v21.4H260.2v4.3H287ZM276.9,81.1h-7.2v7.1h7.2V81.1Zm-25.1,42.8V104.2c0-6.9-3.9-11-10.7-11-3.4,0-7.4,1.7-9.1,4.7V81.1h-5.1v42.9H232V110.1c0-2.3.2-5.5,1.2-7.7a7.7,7.7,0,0,1,6.7-4.7c4.7,0,6.8,2.7,6.8,7.2v19h5.1ZM196,96.8c-3.3,3.2-4.6,7.4-4.6,12.1s1.4,8.9,4.6,12.1a13.6,13.6,0,0,0,9.4,3.7,12.5,12.5,0,0,0,8.8-3.2,11.7,11.7,0,0,0,3.8-7.7h-5a7.5,7.5,0,0,1-7.5,6.5,8.2,8.2,0,0,1-5.6-2.2c-2.5-2.3-3.3-5.9-3.3-9.2s0.7-6.9,3.3-9.2a8.2,8.2,0,0,1,5.6-2.1,7.7,7.7,0,0,1,5.1,1.9,7.6,7.6,0,0,1,2.4,4.6h5.1a11.5,11.5,0,0,0-3.7-7.6,12.7,12.7,0,0,0-8.8-3.3,13.6,13.6,0,0,0-9.4,3.7m-11,7.2a11.4,11.4,0,0,0-1.9-6.5,10.2,10.2,0,0,0-8.5-4.4,10.4,10.4,0,0,0-9.5,5.3l-0.4-4.5h-4.4v30h5.1V110.6a21.6,21.6,0,0,1,1.3-7.8c1.2-2.8,3.9-5.1,6.9-5.1a6.1,6.1,0,0,1,4.7,2,6.5,6.5,0,0,1,1.6,4.4H185Zm-41.7,7.2a9.6,9.6,0,0,1-2.7,6.8,8.7,8.7,0,0,1-6.3,2.4c-4.3,0-6-2.3-6-5s3.4-5.3,6.6-5.5l8.3-.5v1.8Zm8.1,12.4v-3.7l-1.3.2c-1,0-1.8-.4-1.8-2V103.5a10.6,10.6,0,0,0-.9-4.4c-1.4-3.3-4.9-5.9-10.7-5.9-3.7,0-7.2,1.2-9.2,3.3a8.8,8.8,0,0,0-2.8,6.2h5a5.1,5.1,0,0,1,1.6-3.5,7.4,7.4,0,0,1,5.5-1.8,7.1,7.1,0,0,1,5,1.7,5.4,5.4,0,0,1,1.5,4.3v2.2l-9.4.5c-7.6.4-10.7,5.3-10.7,9.8s3.2,8.8,10.4,8.8c4.2,0,8.1-1.9,9.9-4.9h0.1a4.4,4.4,0,0,0,4.4,4.6,7,7,0,0,0,3.3-.7" fill="#ff5a0a"/><path d="M69,109.5a14.5,14.5,0,0,0-3.7-10.3,11.7,11.7,0,0,0-8.6-3.4c-3.5,0-7,1.1-8.8,3.7l0.7-13.2H67V81.9H44.2L43.1,104h5.6a8.1,8.1,0,0,1,7-3.6,7.7,7.7,0,0,1,5.9,2.3,10.5,10.5,0,0,1,2.4,7.1,10.7,10.7,0,0,1-2.1,6.8,7.5,7.5,0,0,1-6.2,2.7,7.8,7.8,0,0,1-8.5-8.1h-5a13.2,13.2,0,0,0,3.9,9.1,13.8,13.8,0,0,0,9.7,3.6,12.8,12.8,0,0,0,9.8-4c2.3-2.5,3.5-6,3.5-10.4" fill="#fff"/><polygon points="38.4 114.3 38.4 109.8 32.8 109.8 32.8 97.5 27.7 97.5 27.7 109.8 13.2 109.8 29.9 81.9 24.5 81.9 8.2 108.9 8.2 114.3 27.7 114.3 27.7 123.1 32.8 123.1 32.8 114.3 38.4 114.3" fill="#fff"/><path d="M95.5,102.5c0,5.6.1,11.6-3.4,14.9a7.8,7.8,0,0,1-10.2,0c-3.5-3.3-3.4-9.3-3.4-14.9s-0.1-11.6,3.4-14.9a7.8,7.8,0,0,1,10.2,0c3.5,3.3,3.4,9.3,3.4,14.9m5.3,0c0-7.9-.7-13.8-4.9-18A11.9,11.9,0,0,0,87,81.1a11.9,11.9,0,0,0-8.9,3.4c-4.2,4.2-4.9,10-4.9,18s0.7,13.7,4.9,17.9a12,12,0,0,0,8.9,3.5,12,12,0,0,0,8.9-3.5c4.2-4.2,4.9-10,4.9-17.9" fill="#fff"/></svg>