<?xml version="1.0" encoding="utf-8"?>
<!-- Generator: Adobe Illustrator 19.1.0, SVG Export Plug-In . SVG Version: 6.00 Build 0)  -->
<svg version="1.1" xmlns="http://www.w3.org/2000/svg" xmlns:xlink="http://www.w3.org/1999/xlink" x="0px" y="0px"
	 viewBox="0 0 48 48" style="enable-background:new 0 0 48 48;" xml:space="preserve">
<style type="text/css">
	.st0{display:none;}
	.st1{display:inline;fill:none;stroke:#EB1C63;stroke-width:2;stroke-miterlimit:10;}
	.st2{fill:#EB1C63;}
</style>
<g id="Layer_1" class="st0">
	<polygon class="st1" points="37.2,3.5 45.5,18.7 44.5,29.3 37.2,44 11.1,44 3.3,29.9 2.5,18.2 11.1,3.5 	"/>
	<polyline class="st1" points="3.3,30.1 11.1,4.2 24,18.5 37.2,4.2 44.5,29.6 	"/>
	<polygon class="st1" points="24,44 3.9,30.1 24,18.5 44,29.6 	"/>
	<polyline class="st1" points="24,44 23.9,38.7 24,18.5 	"/>
</g>
<g id="Layer_2">
	<g>
		<polyline class="st2" points="5.7,8.6 0.8,24.9 0.2,17.8 		"/>
		<polyline class="st2" points="9.5,3.7 22.2,17.6 1.9,29.5 		"/>
		<polyline class="st2" points="10.9,1.7 24,16.2 37.4,1.7 		"/>
		<polyline class="st2" points="38.7,3.7 25.8,17.6 46,28.8 		"/>
		<polyline class="st2" points="47.2,24.5 42.8,9.6 47.8,18.5 		"/>
		<polyline class="st2" points="45,30.9 25.1,19.9 25.1,45.2 		"/>
		<polyline class="st2" points="22.8,45.2 22.9,19.9 2.9,31.5 		"/>
		<polyline class="st2" points="3.3,34.6 9.7,46.3 20.3,46.3 		"/>
		<polyline class="st2" points="27.6,46.3 44.7,33.9 38.5,46.3 		"/>
	</g>
</g>
</svg>
